<mxfile host="app.diagrams.net" agent="Mozilla/5.0 (X11; Linux x86_64; rv:134.0) Gecko/20100101 Firefox/134.0" version="26.0.14">
  <diagram name="Page-1" id="58cdce13-f638-feb5-8d6f-7d28b1aa9fa0">
    <mxGraphModel dx="962" dy="670" grid="1" gridSize="10" guides="1" tooltips="1" connect="1" arrows="1" fold="1" page="1" pageScale="1" pageWidth="1100" pageHeight="850" background="none" math="0" shadow="0">
      <root>
        <mxCell id="0" />
        <mxCell id="1" parent="0" />
        <mxCell id="382b91b5511bd0f7-1" value="" style="ellipse;html=1;shape=startState;fillColor=#000000;strokeColor=#ff0000;rounded=1;shadow=0;comic=0;labelBackgroundColor=none;fontFamily=Verdana;fontSize=12;fontColor=#000000;align=center;direction=south;" parent="1" vertex="1">
          <mxGeometry x="40" y="355" width="30" height="30" as="geometry" />
        </mxCell>
        <mxCell id="2a3bc250acf0617d-9" style="edgeStyle=orthogonalEdgeStyle;html=1;labelBackgroundColor=none;endArrow=open;endSize=8;strokeColor=#ff0000;fontFamily=Verdana;fontSize=12;align=left;" parent="1" source="382b91b5511bd0f7-1" target="9_RPq0l5EkvoODbkcksk-23" edge="1">
          <mxGeometry relative="1" as="geometry" />
        </mxCell>
        <mxCell id="9_RPq0l5EkvoODbkcksk-23" value="BoardBot" style="swimlane;whiteSpace=wrap;html=1;rounded=1;" vertex="1" parent="1">
          <mxGeometry x="120" y="40" width="860" height="660" as="geometry" />
        </mxCell>
        <mxCell id="9_RPq0l5EkvoODbkcksk-41" value="" style="line;strokeWidth=1;fillColor=none;align=left;verticalAlign=middle;spacingTop=-1;spacingLeft=3;spacingRight=3;rotatable=0;labelPosition=right;points=[];portConstraint=eastwest;strokeColor=inherit;dashed=1;direction=south;" vertex="1" parent="9_RPq0l5EkvoODbkcksk-23">
          <mxGeometry x="580" y="30" width="8" height="630" as="geometry" />
        </mxCell>
        <mxCell id="9_RPq0l5EkvoODbkcksk-42" value="" style="line;strokeWidth=1;fillColor=none;align=left;verticalAlign=middle;spacingTop=-1;spacingLeft=3;spacingRight=3;rotatable=0;labelPosition=right;points=[];portConstraint=eastwest;strokeColor=inherit;dashed=1;direction=south;" vertex="1" parent="9_RPq0l5EkvoODbkcksk-23">
          <mxGeometry x="300" y="30" width="8" height="630" as="geometry" />
        </mxCell>
        <mxCell id="9_RPq0l5EkvoODbkcksk-7" value="&lt;div&gt;Confimando&lt;/div&gt;&lt;div&gt;Imagem&lt;br&gt;&lt;/div&gt;" style="rounded=1;whiteSpace=wrap;html=1;arcSize=24;fillColor=#ffffc0;strokeColor=#ff0000;shadow=0;comic=0;labelBackgroundColor=none;fontFamily=Verdana;fontSize=12;fontColor=#000000;align=center;" vertex="1" parent="9_RPq0l5EkvoODbkcksk-23">
          <mxGeometry x="94" y="260" width="120" height="60" as="geometry" />
        </mxCell>
        <mxCell id="382b91b5511bd0f7-6" value="&lt;div&gt;Aguardando&lt;/div&gt;&lt;div&gt;Imagem&lt;br&gt;&lt;/div&gt;" style="rounded=1;whiteSpace=wrap;html=1;arcSize=24;fillColor=#ffffc0;strokeColor=#ff0000;shadow=0;comic=0;labelBackgroundColor=none;fontFamily=Verdana;fontSize=12;fontColor=#000000;align=center;" parent="9_RPq0l5EkvoODbkcksk-23" vertex="1">
          <mxGeometry x="94" y="140" width="120" height="60" as="geometry" />
        </mxCell>
        <mxCell id="9_RPq0l5EkvoODbkcksk-20" value="" style="edgeStyle=orthogonalEdgeStyle;html=1;verticalAlign=bottom;endArrow=open;endSize=8;strokeColor=#ff0000;rounded=0;exitX=0.5;exitY=1;exitDx=0;exitDy=0;" edge="1" source="382b91b5511bd0f7-6" parent="9_RPq0l5EkvoODbkcksk-23" target="9_RPq0l5EkvoODbkcksk-7">
          <mxGeometry relative="1" as="geometry">
            <mxPoint x="-46" y="390" as="targetPoint" />
          </mxGeometry>
        </mxCell>
        <mxCell id="9_RPq0l5EkvoODbkcksk-68" value="UserEvent:&lt;div&gt;Imagem enviada&lt;br&gt;&lt;/div&gt;" style="edgeLabel;html=1;align=center;verticalAlign=middle;resizable=0;points=[];" vertex="1" connectable="0" parent="9_RPq0l5EkvoODbkcksk-20">
          <mxGeometry x="-0.0158" relative="1" as="geometry">
            <mxPoint x="60" as="offset" />
          </mxGeometry>
        </mxCell>
        <mxCell id="9_RPq0l5EkvoODbkcksk-24" value="" style="ellipse;html=1;shape=startState;fillColor=#000000;strokeColor=#ff0000;rounded=1;shadow=0;comic=0;labelBackgroundColor=none;fontFamily=Verdana;fontSize=12;fontColor=#000000;align=center;direction=south;" vertex="1" parent="9_RPq0l5EkvoODbkcksk-23">
          <mxGeometry x="139" y="70" width="30" height="30" as="geometry" />
        </mxCell>
        <mxCell id="9_RPq0l5EkvoODbkcksk-26" style="edgeStyle=orthogonalEdgeStyle;html=1;labelBackgroundColor=none;endArrow=open;endSize=8;strokeColor=#ff0000;fontFamily=Verdana;fontSize=12;align=left;" edge="1" parent="9_RPq0l5EkvoODbkcksk-23" source="9_RPq0l5EkvoODbkcksk-24" target="382b91b5511bd0f7-6">
          <mxGeometry relative="1" as="geometry">
            <mxPoint x="-166" y="160" as="sourcePoint" />
            <mxPoint x="-106" y="160" as="targetPoint" />
          </mxGeometry>
        </mxCell>
        <mxCell id="9_RPq0l5EkvoODbkcksk-30" value="&lt;div&gt;gcode&lt;/div&gt;&lt;div&gt;Pronto&lt;/div&gt;" style="rounded=1;whiteSpace=wrap;html=1;arcSize=24;fillColor=#ffffc0;strokeColor=#ff0000;shadow=0;comic=0;labelBackgroundColor=none;fontFamily=Verdana;fontSize=12;fontColor=#000000;align=center;" vertex="1" parent="9_RPq0l5EkvoODbkcksk-23">
          <mxGeometry x="94" y="400" width="120" height="60" as="geometry" />
        </mxCell>
        <mxCell id="9_RPq0l5EkvoODbkcksk-31" value="" style="edgeStyle=orthogonalEdgeStyle;html=1;verticalAlign=bottom;endArrow=open;endSize=8;strokeColor=#ff0000;rounded=0;" edge="1" parent="9_RPq0l5EkvoODbkcksk-23" target="9_RPq0l5EkvoODbkcksk-30" source="9_RPq0l5EkvoODbkcksk-7">
          <mxGeometry relative="1" as="geometry">
            <mxPoint x="114" y="390" as="targetPoint" />
            <mxPoint x="264" y="150" as="sourcePoint" />
          </mxGeometry>
        </mxCell>
        <mxCell id="9_RPq0l5EkvoODbkcksk-69" value="&lt;br&gt;&lt;div&gt;Event: &lt;br&gt;&lt;/div&gt;&lt;div&gt;gcode criado&lt;br&gt;&lt;/div&gt;" style="edgeLabel;html=1;align=center;verticalAlign=middle;resizable=0;points=[];" vertex="1" connectable="0" parent="9_RPq0l5EkvoODbkcksk-31">
          <mxGeometry x="0.0422" y="2" relative="1" as="geometry">
            <mxPoint x="64" y="-7" as="offset" />
          </mxGeometry>
        </mxCell>
        <mxCell id="9_RPq0l5EkvoODbkcksk-34" value="" style="edgeStyle=orthogonalEdgeStyle;html=1;verticalAlign=bottom;endArrow=open;endSize=8;strokeColor=#ff0000;rounded=0;exitX=0;exitY=0.5;exitDx=0;exitDy=0;" edge="1" parent="9_RPq0l5EkvoODbkcksk-23" source="9_RPq0l5EkvoODbkcksk-67" target="382b91b5511bd0f7-6">
          <mxGeometry relative="1" as="geometry">
            <mxPoint x="94" y="110" as="targetPoint" />
            <mxPoint x="134" y="270" as="sourcePoint" />
            <Array as="points">
              <mxPoint x="40" y="560" />
              <mxPoint x="40" y="170" />
            </Array>
          </mxGeometry>
        </mxCell>
        <mxCell id="9_RPq0l5EkvoODbkcksk-66" value="&lt;div&gt;Event:&lt;/div&gt;&lt;div&gt;&amp;nbsp;Desenho&lt;/div&gt;&lt;div&gt;finalizado&lt;br&gt;&lt;/div&gt;" style="edgeLabel;html=1;align=center;verticalAlign=middle;resizable=0;points=[];" vertex="1" connectable="0" parent="9_RPq0l5EkvoODbkcksk-34">
          <mxGeometry x="-0.4857" y="4" relative="1" as="geometry">
            <mxPoint x="34" y="-131" as="offset" />
          </mxGeometry>
        </mxCell>
        <mxCell id="9_RPq0l5EkvoODbkcksk-67" value="Desenhando" style="rounded=1;whiteSpace=wrap;html=1;arcSize=24;fillColor=#ffffc0;strokeColor=#ff0000;shadow=0;comic=0;labelBackgroundColor=none;fontFamily=Verdana;fontSize=12;fontColor=#000000;align=center;" vertex="1" parent="9_RPq0l5EkvoODbkcksk-23">
          <mxGeometry x="94" y="530" width="120" height="60" as="geometry" />
        </mxCell>
        <mxCell id="9_RPq0l5EkvoODbkcksk-70" value="" style="edgeStyle=orthogonalEdgeStyle;html=1;verticalAlign=bottom;endArrow=open;endSize=8;strokeColor=#ff0000;rounded=0;" edge="1" parent="9_RPq0l5EkvoODbkcksk-23" source="9_RPq0l5EkvoODbkcksk-30" target="9_RPq0l5EkvoODbkcksk-67">
          <mxGeometry relative="1" as="geometry">
            <mxPoint x="184" y="160" as="targetPoint" />
            <mxPoint x="114" y="160" as="sourcePoint" />
            <Array as="points">
              <mxPoint x="154" y="530" />
            </Array>
          </mxGeometry>
        </mxCell>
        <mxCell id="9_RPq0l5EkvoODbkcksk-72" value="UserEvent:&lt;div&gt;Iniciar Desenho&lt;/div&gt;" style="edgeLabel;html=1;align=center;verticalAlign=middle;resizable=0;points=[];" vertex="1" connectable="0" parent="9_RPq0l5EkvoODbkcksk-70">
          <mxGeometry x="-0.1069" y="3" relative="1" as="geometry">
            <mxPoint x="57" as="offset" />
          </mxGeometry>
        </mxCell>
        <mxCell id="9_RPq0l5EkvoODbkcksk-44" value="&lt;div&gt;Aguardando&lt;/div&gt;&lt;div&gt;Imagem&lt;br&gt;&lt;/div&gt;" style="rounded=1;whiteSpace=wrap;html=1;arcSize=24;fillColor=#ffffc0;strokeColor=#ff0000;shadow=0;comic=0;labelBackgroundColor=none;fontFamily=Verdana;fontSize=12;fontColor=#000000;align=center;" vertex="1" parent="9_RPq0l5EkvoODbkcksk-23">
          <mxGeometry x="379.95" y="160" width="120" height="60" as="geometry" />
        </mxCell>
        <mxCell id="9_RPq0l5EkvoODbkcksk-45" value="" style="edgeStyle=orthogonalEdgeStyle;html=1;verticalAlign=bottom;endArrow=open;endSize=8;strokeColor=#ff0000;rounded=0;exitX=0.5;exitY=1;exitDx=0;exitDy=0;entryX=0.5;entryY=0;entryDx=0;entryDy=0;" edge="1" parent="9_RPq0l5EkvoODbkcksk-23" source="9_RPq0l5EkvoODbkcksk-44" target="9_RPq0l5EkvoODbkcksk-87">
          <mxGeometry relative="1" as="geometry">
            <mxPoint x="440.0344827586207" y="355" as="targetPoint" />
            <Array as="points" />
          </mxGeometry>
        </mxCell>
        <mxCell id="9_RPq0l5EkvoODbkcksk-63" value="UserEvent:&lt;div&gt;&amp;nbsp;Imagem Confirmada&lt;/div&gt;" style="edgeLabel;html=1;align=center;verticalAlign=middle;resizable=0;points=[];" vertex="1" connectable="0" parent="9_RPq0l5EkvoODbkcksk-45">
          <mxGeometry x="-0.5282" y="-5" relative="1" as="geometry">
            <mxPoint x="65" y="38" as="offset" />
          </mxGeometry>
        </mxCell>
        <mxCell id="9_RPq0l5EkvoODbkcksk-46" value="" style="ellipse;html=1;shape=startState;fillColor=#000000;strokeColor=#ff0000;rounded=1;shadow=0;comic=0;labelBackgroundColor=none;fontFamily=Verdana;fontSize=12;fontColor=#000000;align=center;direction=south;" vertex="1" parent="9_RPq0l5EkvoODbkcksk-23">
          <mxGeometry x="424.95" y="70" width="30" height="30" as="geometry" />
        </mxCell>
        <mxCell id="9_RPq0l5EkvoODbkcksk-47" style="edgeStyle=orthogonalEdgeStyle;html=1;labelBackgroundColor=none;endArrow=open;endSize=8;strokeColor=#ff0000;fontFamily=Verdana;fontSize=12;align=left;" edge="1" parent="9_RPq0l5EkvoODbkcksk-23" source="9_RPq0l5EkvoODbkcksk-46" target="9_RPq0l5EkvoODbkcksk-44">
          <mxGeometry relative="1" as="geometry">
            <mxPoint x="229.95" y="200" as="sourcePoint" />
            <mxPoint x="289.95" y="200" as="targetPoint" />
          </mxGeometry>
        </mxCell>
        <mxCell id="9_RPq0l5EkvoODbkcksk-61" value="" style="edgeStyle=orthogonalEdgeStyle;html=1;verticalAlign=bottom;endArrow=open;endSize=8;strokeColor=#ff0000;rounded=0;" edge="1" parent="9_RPq0l5EkvoODbkcksk-23" source="9_RPq0l5EkvoODbkcksk-87" target="9_RPq0l5EkvoODbkcksk-44">
          <mxGeometry relative="1" as="geometry">
            <mxPoint x="684.95" y="200" as="targetPoint" />
            <mxPoint x="379.95000000000005" y="385.0344827586208" as="sourcePoint" />
            <Array as="points">
              <mxPoint x="330" y="385" />
              <mxPoint x="330" y="190" />
            </Array>
          </mxGeometry>
        </mxCell>
        <mxCell id="9_RPq0l5EkvoODbkcksk-53" value="&lt;div&gt;Aguardando&lt;/div&gt;&lt;div&gt;gcode&lt;br&gt;&lt;/div&gt;" style="rounded=1;whiteSpace=wrap;html=1;arcSize=24;fillColor=#ffffc0;strokeColor=#ff0000;shadow=0;comic=0;labelBackgroundColor=none;fontFamily=Verdana;fontSize=12;fontColor=#000000;align=center;" vertex="1" parent="9_RPq0l5EkvoODbkcksk-23">
          <mxGeometry x="679.96" y="139.9999999999999" width="120" height="60" as="geometry" />
        </mxCell>
        <mxCell id="9_RPq0l5EkvoODbkcksk-54" value="" style="edgeStyle=orthogonalEdgeStyle;html=1;verticalAlign=bottom;endArrow=open;endSize=8;strokeColor=#ff0000;rounded=0;exitX=0.5;exitY=1;exitDx=0;exitDy=0;entryX=0.5;entryY=0;entryDx=0;entryDy=0;" edge="1" parent="9_RPq0l5EkvoODbkcksk-23" source="9_RPq0l5EkvoODbkcksk-53" target="9_RPq0l5EkvoODbkcksk-84">
          <mxGeometry relative="1" as="geometry">
            <mxPoint x="739.9600000000003" y="349.9999999999998" as="targetPoint" />
            <Array as="points" />
          </mxGeometry>
        </mxCell>
        <mxCell id="9_RPq0l5EkvoODbkcksk-75" value="UserEvent:&lt;div&gt;Iniciar Desenho&lt;br&gt;&lt;/div&gt;" style="edgeLabel;html=1;align=center;verticalAlign=middle;resizable=0;points=[];" vertex="1" connectable="0" parent="9_RPq0l5EkvoODbkcksk-54">
          <mxGeometry x="-0.1788" y="4" relative="1" as="geometry">
            <mxPoint x="46" y="9" as="offset" />
          </mxGeometry>
        </mxCell>
        <mxCell id="9_RPq0l5EkvoODbkcksk-55" value="" style="ellipse;html=1;shape=startState;fillColor=#000000;strokeColor=#ff0000;rounded=1;shadow=0;comic=0;labelBackgroundColor=none;fontFamily=Verdana;fontSize=12;fontColor=#000000;align=center;direction=south;" vertex="1" parent="9_RPq0l5EkvoODbkcksk-23">
          <mxGeometry x="724.96" y="69.99999999999989" width="30" height="30" as="geometry" />
        </mxCell>
        <mxCell id="9_RPq0l5EkvoODbkcksk-56" style="edgeStyle=orthogonalEdgeStyle;html=1;labelBackgroundColor=none;endArrow=open;endSize=8;strokeColor=#ff0000;fontFamily=Verdana;fontSize=12;align=left;" edge="1" parent="9_RPq0l5EkvoODbkcksk-23" source="9_RPq0l5EkvoODbkcksk-55" target="9_RPq0l5EkvoODbkcksk-53">
          <mxGeometry relative="1" as="geometry">
            <mxPoint x="529.96" y="179.9999999999999" as="sourcePoint" />
            <mxPoint x="589.96" y="179.9999999999999" as="targetPoint" />
          </mxGeometry>
        </mxCell>
        <mxCell id="9_RPq0l5EkvoODbkcksk-60" value="" style="edgeStyle=orthogonalEdgeStyle;html=1;verticalAlign=bottom;endArrow=open;endSize=8;strokeColor=#ff0000;rounded=0;" edge="1" parent="9_RPq0l5EkvoODbkcksk-23" target="9_RPq0l5EkvoODbkcksk-53">
          <mxGeometry relative="1" as="geometry">
            <mxPoint x="1159.96" y="169.9999999999999" as="targetPoint" />
            <mxPoint x="679.9600000000003" y="380" as="sourcePoint" />
            <Array as="points">
              <mxPoint x="640" y="380" />
              <mxPoint x="640" y="170" />
            </Array>
          </mxGeometry>
        </mxCell>
        <mxCell id="9_RPq0l5EkvoODbkcksk-76" value="Interface do Usuário" style="text;html=1;align=center;verticalAlign=middle;resizable=0;points=[];autosize=1;strokeColor=none;fillColor=none;" vertex="1" parent="9_RPq0l5EkvoODbkcksk-23">
          <mxGeometry y="30" width="130" height="30" as="geometry" />
        </mxCell>
        <mxCell id="9_RPq0l5EkvoODbkcksk-78" value="Gerador de rotas de desenho" style="text;html=1;align=center;verticalAlign=middle;resizable=0;points=[];autosize=1;strokeColor=none;fillColor=none;" vertex="1" parent="9_RPq0l5EkvoODbkcksk-23">
          <mxGeometry x="308" y="30" width="180" height="30" as="geometry" />
        </mxCell>
        <mxCell id="9_RPq0l5EkvoODbkcksk-79" value="Interpretador de gcode" style="text;html=1;align=center;verticalAlign=middle;resizable=0;points=[];autosize=1;strokeColor=none;fillColor=none;" vertex="1" parent="9_RPq0l5EkvoODbkcksk-23">
          <mxGeometry x="588" y="30" width="150" height="30" as="geometry" />
        </mxCell>
        <mxCell id="9_RPq0l5EkvoODbkcksk-84" value="Desenhando" style="swimlane;fontStyle=1;align=center;verticalAlign=middle;childLayout=stackLayout;horizontal=1;startSize=30;horizontalStack=0;resizeParent=0;resizeLast=1;container=0;fontColor=#000000;collapsible=0;rounded=1;arcSize=30;strokeColor=#ff0000;fillColor=#ffffc0;swimlaneFillColor=#ffffc0;dropTarget=0;" vertex="1" parent="9_RPq0l5EkvoODbkcksk-23">
          <mxGeometry x="663.72" y="355" width="152.48" height="60" as="geometry" />
        </mxCell>
        <mxCell id="9_RPq0l5EkvoODbkcksk-85" value="exit / Desenho finalizado" style="text;html=1;strokeColor=none;fillColor=none;align=center;verticalAlign=middle;spacingLeft=4;spacingRight=4;whiteSpace=wrap;overflow=hidden;rotatable=0;fontColor=#000000;" vertex="1" parent="9_RPq0l5EkvoODbkcksk-84">
          <mxGeometry y="30" width="152.48" height="30" as="geometry" />
        </mxCell>
        <mxCell id="9_RPq0l5EkvoODbkcksk-87" value="Processando Imagem" style="swimlane;fontStyle=1;align=center;verticalAlign=middle;childLayout=stackLayout;horizontal=1;startSize=30;horizontalStack=0;resizeParent=0;resizeLast=1;container=0;fontColor=#000000;collapsible=0;rounded=1;arcSize=30;strokeColor=#ff0000;fillColor=#ffffc0;swimlaneFillColor=#ffffc0;dropTarget=0;" vertex="1" parent="9_RPq0l5EkvoODbkcksk-23">
          <mxGeometry x="349.95" y="355" width="180" height="60" as="geometry" />
        </mxCell>
        <mxCell id="9_RPq0l5EkvoODbkcksk-88" value="exit / gcode criado" style="text;html=1;strokeColor=none;fillColor=none;align=center;verticalAlign=middle;spacingLeft=4;spacingRight=4;whiteSpace=wrap;overflow=hidden;rotatable=0;fontColor=#000000;" vertex="1" parent="9_RPq0l5EkvoODbkcksk-87">
          <mxGeometry y="30" width="180" height="30" as="geometry" />
        </mxCell>
      </root>
    </mxGraphModel>
  </diagram>
</mxfile>
